<?xml version="1.0" encoding="utf-8"?>
<!-- Generator: Adobe Illustrator 27.1.0, SVG Export Plug-In . SVG Version: 6.00 Build 0)  -->
<svg version="1.1" id="Capa_1" xmlns="http://www.w3.org/2000/svg" xmlns:xlink="http://www.w3.org/1999/xlink" x="0px" y="0px"
	 viewBox="0 0 102 103" style="enable-background:new 0 0 102 103;" xml:space="preserve">
<style type="text/css">
	.st0{fill:#E30613;}
</style>
<g>
	<g>
		<path class="st0" d="M27.7,18.6c0-2.2,0.3-4.1-0.8-6.1c-0.3-0.5-1.2-2.8-1.5-3c-3.7-2.9-4.3,4.4-4.9,6.5c0.3-0.1,0.7-0.3,1-0.4
			c-0.2,0.7-0.5,1.3-0.7,2c-2.5-3-3.1-7.3-7.9-6.2c1.5,0.3,2.9,0.6,4.5,0.7c-1.9,0.1-2.6,1.3-4.4,1.8c-1.3,0.4-0.9,0.7-1.8-0.8
			c0,1.1-0.3,3.5,0.3,4.3c0.2,0.3,0.9,0,1.2,0.2c0.6,0.5,1.5,0.9,2.1,1.4c-1.2,0.4-2.5,0.9-3.7,1.2c0.6,0.2,1.1,0.5,1.7,0.8
			c-0.7,0.5-1.9,2.2-1.9,3.1c0,1.4,0.4,0.3,1.1,1.5c0,0.1,1.1,0.5,1.2,0.7c0.1,0.4-0.8,1.8-1.1,2.2c-1,1.1-3.2,1.8-4.6,0.5
			c-1-1-0.4-5.4-0.5-6.9c-0.1-2.2-1.3-3.7-1.4-5.8c0-2.4,0.5-4.7,1.8-6.8c1.1-1.7,2.7-4.1,4.8-4.6c2.1-0.6,4.4,0.2,6.5,0.6
			c-0.1,0.3-0.3,0.6-0.4,1c1.4,0,4.5,0.6,5.5-0.4c-0.6-0.3-1.2-0.6-1.9-0.9c1.2-0.1,4.1-0.8,5.1,0c0.7,0.6,1.1,2.6,1.6,3.4
			c0-0.6,0.1-1.1,0.3-1.6c1,1.1,0.9,4,1.1,5.5c0.3,2,0.5,4.1,0.8,6.1c0.4,2.9,0.2,8.3,1.8,10.5c0.2,0.2,0.8,0.3,1,0.5
			c0.5,0.4,0.9,1.3,1.3,1.9c0.7,1,1.5,2.1,2.5,2.9c2.7,2.2,5.5,0.8,8.4,1.9c-0.8,0.9-1.3,1.1-1,2.3c1.7-0.5,3.3-0.7,5.1-0.8
			c0,0.5,0,1,0.1,1.4c-3.6,0.1-7-0.7-10.5-1.6c-0.6-0.1-2.1-0.9-2.8-0.6c-0.8,0.4-1.4,2.1-2.2,2.7c-0.5-1.1-1.2-2-1.8-3
			c-0.5-0.8-0.9-2.3-1.6-2.9c0.4,0.4-3-1-1.7-0.5c-1.4-0.6-2.6-1.7-3.9-2.4c-2.8-1.4-3-0.2-5.6,0.3c-2.4,0.5-5-1.1-5.3-3.4
			c0.8-0.1,3.7-0.8,4.4-0.3c0.4,0.3,0.5,1.9,0.5,2.3c1-3.2,4-5.2,5.5-8.2c0.6,1.4,1.1,2.8,1.8,4.2C28.1,23.7,27.7,21.3,27.7,18.6z
			 M30.1,22.8"/>
		<path class="st0" d="M63,41.7c0.2,5.4,1.1,11.1,0.2,16.4c0.5-1.3,1.2-2.6,1.2-4c0.5,3,0.5,6.1,0.8,9.1c-0.4,1-0.2,1.2,0,0
			c2.4,2,4.7,4.3,7.3,6c2.7,1.8,3.8,2.3,6.4,0.4c0.3,1,0.6,2,1,2.9c-1.5,0.4-3.9,0.6-4.4,1.9s1,5,1.3,6.2c-1.8-0.4-1.2-2.5-2.7-3.7
			c-1.8,2.2-1.2,7.4-0.9,10.2c0.4,3.4,2.9,3.3,5.6,4.7c0.8-1.6,2-5.1,4.2-4.2c0.9,0.4,1.3,1.7,2.3,2.1c1.6,0.6,3.9-0.5,5.5-0.7
			c-0.7-1.9-0.9-3.4-2.5-4.7c-1-0.8-2.6-1.1-3-2.3c2.4-0.6,4.1-2.4,6.1-3.9c-2.2-2.1-3-3.2-6-3.6c1.6-0.3,3.3-0.6,4.9-0.9
			c-1.4-0.3-2.4-0.8-3.7-1.5c2.6-0.9,4.2-0.7,7-0.4c-3.3,1.1-1.6,1.5-0.2,4s1.9,5.7,2.2,8.4c0.6,4.7-1.4,9.3-6.2,10.7
			c1.2,0.1,2.4,0.2,3.5,0.5c-2.3,0.8-6,1.1-8.5,0.7c-1.8-0.3-3.8-2.1-5.4-1.6c0.8,0.7,1.5,0.7,2.5,0.9c-3.1,0.4-7.1,1.5-9.2-1.6
			c-2.3-3.6-1.4-9.7-2-13.7c-0.3-2.2-0.5-5.1-1.6-7.1c-1-1.7-3.2-2.7-4.7-3.8c-1.1-0.9-5-3.4-5.1-4.8c0-0.8,0.5-1,1.2-1.1
			c1.4-0.2,1.7,1.1,2.3,2.2c1-1.7,0.1-3-0.3-4.9c-0.5-2.3-0.5-4.7-0.5-7.1c0-2.2,0-4.4,0.1-6.6C61.7,44.8,61,42.4,63,41.7z"/>
		<path class="st0" d="M31.7,80.3c1.2,2.1,1.7,2.6,0.8,4.8c-1.2,2.7-0.7,5.8-1.4,8.7c-0.2-0.4-0.4-0.9-0.5-1.3
			c-1.4,2.3-2,1.7-4.6,1.1c-1.8-0.4-4.1-1.6-5.8-0.6c-2.2,1.3-0.7,3-3.5,3c-2.3,0-3.8-0.5-5.2-2.4c-1.2-1.7-2.1-3.8-3-5.6
			C8.2,87.2,7,85.2,7,84.5c0.1-0.7,0.7-0.9,1-1.5c1.6-3.6-2.1-8.2-0.5-11.6c0.8,1.6,0.4,1.2,2,1.2c1.4,0,3.3-0.6,4.6-1.1
			c2.5-0.9,3.8-2.8,6.2-1.2c-1.1,0.9-1.8,1.3-3.2,1.7c1.3,1.1,4.8-0.8,6-1.5c2.1-1.2,4-1.2,6.2-1.9c-0.9-0.1-1.6-0.2-2.5-0.7
			c1.7-0.3,2.9-0.3,4.3-1.4c1.3-1,2-2.3,3.5-3.1c1.6-0.8,8-3,8.9-0.8c1.2,2.7-4,4.7-5.4,5.7c-2.4,1.8-4.7,5.4-5.4,8.4
			c-0.2-1-0.4-2-0.7-3c-0.2,0.7-0.4,1.5-0.4,2.2C31.7,76.7,31.7,77.5,31.7,80.3z M29.6,82.8L29.6,82.8c0-3.3-0.4-6.5-0.8-9.8
			c-0.3,0.9-0.4,2.9-1.1,3.7c-0.6,0.7-1,0.6-1.9,1.2c0.9,1-0.3,2.7-1.4,3.3c0.3-2,0.6-4,1-6c0.4-2.3,0.5-1.9,2.2-2.9
			c-2-1.1-4.8-0.1-6.9,0.3c-2.5,0.5-6.1,0.9-8.3,2.3c-1,0.6-2.6,2.1-1.3,3.6c0.5,0.5,2.6,0.5,3.2,0.6c1.5,0.2,2.9,0.7,4.4,1.1
			c-1.9,1.9-5.1,1.2-5.9,4.7c-0.8,3.6,2.2,5.8,5.4,4c0.9-0.5,1.3-0.9,1.8-1.8c0.2-0.3,0.2-1.8,0.5-1.9c1.1-0.5,3.6,3.7,4,4.3
			c0.5,0.6,1.8,3.1,2.8,2.2c1.1-0.9,0.8-4.6,1.1-6c0.3,1.2,0.5,2.4,0.7,3.7C29.5,87.1,29.6,85.1,29.6,82.8z"/>
		<path class="st0" d="M57.4,37.6c-0.8-0.5-1.6-0.9-2.4-1.4c1.5-0.6,3-0.4,4.5-1.1c1.4-0.7,2.9-1.9,4.1-2.9c2.5-2.1,3.2-5.7,4.3-8.8
			c0.6,1.2,0.5,2.8,0.8,4.1c0.7-2.3,1.2-7.1,0.2-9.4c-0.2-0.4-1.4-0.4-1.4-0.7c-0.2-1,1.3-4.1,1.6-5c1.1-2.8,2.2-4.5,5.2-5.2
			c1.3-0.3,2.4-0.4,3.6,0c1.4,0.5,1.7,1.6,3.2,1c-0.5-0.9-2-0.4-2.7-1.1c0.2,0.2,2.9,0.2,2.6,0.1c3-1.4,4.7-2.6,8-1
			c2.8,1.4,4.1,3.9,4.4,6.9c0.3,3.6,0.4,7.2,0.4,10.8c0,3.9-0.1,5.8-4.3,6.3c0.6,0.2,2.4,0.3,2.9,0.9c-2,0.1-6.5,1.4-5.5-2.1
			c0.6-1.9,2.6-0.2,3.8-2.1c0.6-1,0.4-3.5-0.3-4.3c-1.2-1.5-5.6-1.6-7.3-1.9c1.9-0.3,3.7-0.5,5.7-0.5c-3.4-1.2-1-4,0-6.7
			c-1-0.3-2.2-0.3-3.1-0.8c-0.5-0.3-1.1-1.4-1.7-1.5c-1.9-0.2-3.2,2.9-3.8,4.2c-0.4-1-0.7-2.8-1.5-3.7c-1-1.1-1.5-0.6-3.1-0.2
			c-2.4,0.6-2.8,2.1-3.8-0.3c-0.4,2.6-0.4,5.1-0.4,7.7c0,2.1-0.6,5.3,0,7.3c0.1,0.3-0.1,1.1,0.3,1.4c0.3,0.2,2.1-0.5,2.3-0.9
			c0.8-1.5-1.2-3.6,0.1-4.9c1.5,1.5,1.4,4.8,1.3,6.8c0,2.7-1.8,2.7-4,3.6c0.6,0.6,2.2,0.6,3,0.7c-7,1-8.1,7.5-9.9,13.4
			c-0.6-1.5-1-3.1-1.5-4.7l0,0c-0.1-1.5,0.3-5-0.9-5.9C61.7,37.1,58.6,37.3,57.4,37.6L57.4,37.6z"/>
		<path class="st0" d="M80.9,61.8c0.3-2.2,1.3-6-0.6-7.7c-1-1-2.3-0.7-3.5-0.8c-2-0.2-2-1.1-3.4-2.7c1.6-0.4,3.3-0.8,4.9-1.1
			c2.1-0.5,2.3,0,2.4-2c0.1-1.9-0.5-4-0.8-5.9c-0.1-1-1-3.7-0.4-4.8c1.4-2.7,4.6,0.1,6.4,0.5c2.6,0.5,4.1,1.2,3.6,4.3
			c0.5,0.1,0.8-1.2,1.2-1.6c0.2,2.5,0.2,4.6-0.2,7c-2.1-0.8-0.9-1.1-1.3,0.6c-0.6,2.4-2.3,3.4-1.3,6.2c0.7,2,3.4,4.2,3.1,6.3
			c-0.2,1.6-2.3,4.9-3.9,5.4C83.1,66.7,79.2,66.3,80.9,61.8z"/>
		<path class="st0" d="M35,21.2c0.3-2.7,0.3-7.9,2.6-9.8c1.1-1,3.4-0.7,4.8-0.5c2.6,0.4,3.2,1.4,4.9,3s1.8,0.4,3.6-0.4
			c1.7-0.8,4.5-0.8,6.4-0.8c1.8-0.1,4-0.2,5.4,1.1c0.7,0.7,2.7,3.8,2.6,4.8c-0.2,1.7-2,1.2-3,0.9c-2-0.5-3.3-1.4-5.1-1
			c-2.2,0.4-5,1-5.3,3.3c-0.2,1.8,0.6,4.6-1.2,5.7c-1,0.6-2.8,0.3-3.4-0.8c-0.5-0.9,0.1-1.9,0.3-2.8c0.3-1.2,0.5-1.8-0.2-2.8
			c-0.5-0.7-4.5-3-5.3-2.7C40.5,18.9,38.9,19.6,35,21.2z"/>
		<path class="st0" d="M10.9,43c-0.1-3.7,1.9-8.2,6.2-8c2.4,0.1,2.6,1.2,2.6,3.3c0,1.6,0,3.1,0,4.7c0,0.8-0.4,3.5,0,4.1
			c1.2,1.7,13.1,2.4,5,5c-2.3,0.7-4.5,1.1-5,3.8c-0.3,1.4,0.1,2.9,0.1,4.4c0,1.8-0.3,3.4-0.6,5.1c-2-0.9-6.1-1.8-7.1-3.8
			c-0.2,0.5-0.3,1-0.6,1.5c-1.2-1-0.6-7.8,0-9.2c0.5-1.1,1.8-1.6,2.5-2.5c0.9-1.2,0.5-2.1,0.1-3.6c0.6-1.5-0.6,2.1-1,1.2
			C12.3,46.6,11.4,44.2,10.9,43z"/>
		<path class="st0" d="M35.5,85.2c0.2-1.3,0.4-2.6,0.6-3.9c1.9,0.8,3.6,1.6,5.7,1.5c-0.3-0.3-0.5-0.7-0.6-1.1c1-0.2,1.6-0.3,2.5,0.2
			c0.5,0.2,0.8,1.3,1.4,1.3c1.6,0,2.6-3.6,3.1-4.7c1-2.1,0.8-3.8,3.1-2.8c1.9,0.8,4.2,4.5,5.5,6c-1.1,0.6-1.6,0.6-2.8,0.9
			c2.8,0.9,6.2,0.6,9.1,0c0,0-1.8-0.9-1.3-0.9c0.8-0.1,2.7-0.8,3.3-0.2c0.7,0.7,0.6,3.4,0.6,4.4c0,1.7,0,3.7-1.8,4.5
			c-2.3,1.1-7.4-0.5-9.3-1.7c-1-0.6-2.1-1.9-3.2-2.2c-2.2-0.7-0.2-0.9-1.3,0.5c-1.2,1.6-0.7,3-3.2,3.4c-4.2,0.7-8.4-1.5-12.1-3
			C35,86.7,35.2,85.9,35.5,85.2z"/>
		<path class="st0" d="M49,73.4c-1.9,1.4-5,5.2-7.4,4c-3.4-1.7-0.2-5.3,0.9-7.5C44.3,70.8,46.1,71.8,49,73.4z"/>
		<path class="st0" d="M30.5,41.6c-0.3,1.5-0.7,2.9-1,4.4c-0.4,1.6-0.3,1.7-1.8,1.1c-1.2-0.5-1.8-2-2.5-2.9
			c-1.7-1.9-1.2-2.2-0.4-4.9C26.6,40.1,28.5,40.9,30.5,41.6z"/>
		<path class="st0" d="M77.7,59.1c-0.7,2.3-0.8,2.6-3.3,2.6c-1.7,0-2.5,0-3-1.8c-0.3-1.1-0.4-4,0.3-4.9c1.2-1.6,2.3-0.5,3.4,0.8
			C76,56.8,76.8,58,77.7,59.1z"/>
		<path class="st0" d="M57.6,78.1c-0.8-1.4-4.2-6-1.3-7.1c1.2-0.5,3.3,2,4.4,0.5c0.1,0.1,0.3,0.2,0.4,0.3c-1.1,0.2-2.3,0.5-3.4,0.7
			c0.9,0.2,2.6,0.3,3.3,1.1c0.9,1.1-0.1,2.7-0.6,4C59.4,77.9,58.5,78,57.6,78.1z"/>
		<path class="st0" d="M70.6,42.8c1-0.6,2-1.3,3.1-1.7c-0.6-0.7-1.2-0.7-2-0.9c1.9-0.2,3.3-0.2,5.2,0.1c-0.9,0.2-1.5,0.2-2.1,0.7
			c0.9,0.6,1.7,1.2,2.5,1.8c-1.8,2.2-3.8,4.1-5.1,6.6C71.7,47.5,71.2,45.6,70.6,42.8z"/>
		<path class="st0" d="M61.6,26.1c-0.5,2-0.7,2.7-0.9,3.5c-0.1-0.6-0.2-1.1-0.4-1.7c-0.5,0.6-0.9,1.6-1.5,1.7
			c-6.2,1.2-3.1-3.1-3.2-5.5c0-0.7,0.6-1.4,0.9-2.1C58.3,23.4,60.1,24.9,61.6,26.1z"/>
		<path class="st0" d="M46.8,27.8c-1.7,1.4-3.4,4.2-5.7,2.7c-2.8-1.8,0.3-5.1,1.4-7.2C43.8,24.6,45.1,25.9,46.8,27.8z"/>
		<path class="st0" d="M30.2,58.4c-0.7,0.5-1.8,1-2.3,1.7c-0.4,0.5-0.7,2.5-1,2.7c-0.8,0.5-2.4-1.6-3-2.2c0.7-0.1,1.3-0.3,2-0.5
			c-3.1-1.2-1.8-2.4-0.4-4.6c2.9,2.3,1.6-1.4,3.5-2.3C29.3,54.6,29.7,56.1,30.2,58.4z"/>
		<path class="st0" d="M39.7,51.1c-0.2,2.8-0.3,5.4-1,8.2c-1.1-2.7-0.8-5.2-0.7-8.1c0.1-2.1-0.6-6.1,0.7-7.8
			c0.1,0.2,0.4,0.4,0.4,0.7C39.3,46.6,39.5,49.1,39.7,51.1z"/>
		<path class="st0" d="M85.6,29.7c-0.8,1.7-0.4,1.7-2.2,2.1c-1.3,0.3-3.2-0.2-4.6-0.3c1.2-2,1.8-1.7,4.1-2.2c-0.2-0.7-1-0.7-1.6-1
			c1.1-0.1,2.2-0.3,3.3-0.2C85,28.1,85.3,29,85.6,29.7z"/>
		<path class="st0" d="M54.1,65.9c-0.4-0.9-2.1-3.3-1.1-4c0.7-0.5,4.8,2,5.5,2.4C57.2,64.7,56,65.2,54.1,65.9z"/>
		<path class="st0" d="M47,63.3c1.2-2.3,2.5-1.5,5-1.3c-1.8,1.4-3.1,1.9-0.5,2.8c-1.3,0.1-2.5,0.4-3.8,0.3
			C47.5,65.2,47.3,64.1,47,63.3z"/>
		<path class="st0" d="M81.2,74.6c-0.5-2.8,0.9-3.4,2.9-5.5c0.6,1,1.1,2.1,1.7,3.1C84.7,72.8,83.6,73.4,81.2,74.6z"/>
		<path class="st0" d="M57.4,37.6c0.6,0.5,1.2,1,1.7,1.5c-1.4,0-8.1,0.9-8.5-0.4C50.3,37.2,56.5,37.7,57.4,37.6L57.4,37.6z"/>
		<path class="st0" d="M38,41.7c-0.6,2.2-1.2,4.2-1.7,6.2c-0.5-2.7,0.2-5.9,0.4-8.6C37.1,40.1,37.6,40.8,38,41.7z"/>
		<path class="st0" d="M37.7,60.8c-0.9,1.5-2,1.3-3.7,1.4c1.6-0.6,1.4-0.6,1.6-2.6c0.2-1.9,0.1-3.9,0.6-5.8c0.1,0.4,0.3,0.7,0.3,1.1
			C37,56.8,37.3,58.7,37.7,60.8z"/>
		<path class="st0" d="M53.4,30.1c-1.1-0.8-1.4-1-1.8-1.3c0.8-0.8,1.8-1.3,2.7-2C54.1,27.7,53.9,28.6,53.4,30.1z"/>
		<path class="st0" d="M95.7,77.2c-0.2,0.6-0.3,1.1-0.4,1.5c-0.1-1.1-0.3-2,0.2-2.9C95.5,76.3,95.6,76.8,95.7,77.2z"/>
		<path class="st0" d="M30.1,20.1"/>
	</g>
</g>
</svg>
