<?xml version="1.0" encoding="utf-8"?>
<!-- Generator: Adobe Illustrator 27.1.0, SVG Export Plug-In . SVG Version: 6.00 Build 0)  -->
<svg version="1.1" id="Capa_1" xmlns="http://www.w3.org/2000/svg" xmlns:xlink="http://www.w3.org/1999/xlink" x="0px" y="0px"
	 viewBox="0 0 203.3 194" style="enable-background:new 0 0 203.3 194;" xml:space="preserve">
<style type="text/css">
	.st0{fill:#E3010A;}
	.st1{fill:#1D1E1B;}
</style>
<path class="st1" d="M137.7,78.7c27.9-32,1.4-78.7-36.1-78.7v0l0,0c-37.5,0-64,46.7-36.1,78.7C13,65.2-15.4,115.1,8.7,150.9
	c24.5,36.4,80.1,20.9,86.5-18.4c0,19.7,3.2,37.2-24.3,61.6c9.3,0,21.1,0,30.8,0c1,0,2,0,3.1,0c9.3,0,18.5,0,27.8,0
	c-27.5-24.3-24.3-41.8-24.3-61.6c6.4,39.4,62,54.9,86.5,18.4C218.7,115.1,190.3,65.2,137.7,78.7z"/>
</svg>
