<?xml version="1.0" encoding="utf-8"?>
<!-- Generator: Adobe Illustrator 27.1.0, SVG Export Plug-In . SVG Version: 6.00 Build 0)  -->
<svg version="1.1" id="Capa_1" xmlns="http://www.w3.org/2000/svg" xmlns:xlink="http://www.w3.org/1999/xlink" x="0px" y="0px"
	 viewBox="0 0 936 468" style="enable-background:new 0 0 936 468;" xml:space="preserve">
<style type="text/css">
	.st0{fill:#E3010A;}
	.st1{fill:#1D1E1B;}
</style>
<image style="overflow:visible;enable-background:new    ;" width="1300" height="650" xlink:href="A591DD33.jpeg"  transform="matrix(0.72 0 0 0.72 0 0)">
</image>
<path class="st0" d="M804,181.4c-26.8-53.9-106.3-28.9-97.9,35.7c6.8,51.8,81.5,83.4,97.9,114.1c16.4-30.8,91.1-62.3,97.9-114.1
	C910.4,152.5,830.9,127.5,804,181.4L804,181.4z"/>
<path class="st0" d="M354,125.2c-26.6,49.8-60.7,93-80,108.9c23.2,20.9,61.8,70.7,80,107.9c18.2-37.3,56.8-87.1,80-107.9
	C414.7,218.1,380.5,174.9,354,125.2z"/>
<path class="st1" d="M213.9,207.4L213.9,207.4c-13.6-9.8-47.1-35.8-78.1-77.9c-31,42.1-64.5,68.1-78.1,77.9
	c-13.6,9.8-37.6,37.8-11.9,74.7c21.7,31.2,66.9,22.2,81.4,3.1c-4.5,23.9-7.5,36.1-24.7,52.9h33.4h33.4c-17.2-16.7-20.2-29-24.7-52.9
	c14.4,19.1,59.7,28.1,81.4-3.1C251.5,245.2,227.5,217.2,213.9,207.4z"/>
<path class="st1" d="M609.1,215.3c27.9-32,1.4-78.7-36.1-78.7v0l0,0c-37.5,0-64,46.7-36.1,78.7c-52.6-13.5-80.9,36.4-56.9,72.2
	c24.5,36.4,80.1,20.9,86.5-18.4c0,19.7,3.2,37.2-24.3,61.6c9.3,0,21.1,0,30.8,0c1,0,2,0,3.1,0c9.3,0,18.5,0,27.8,0
	c-27.5-24.3-24.3-41.8-24.3-61.6c6.4,39.4,62,54.9,86.5,18.4C690.1,251.8,661.7,201.9,609.1,215.3z"/>
</svg>
